<svg xmlns="http://www.w3.org/2000/svg" viewBox="0 0 160 160"><g stroke="#101d2a" stroke-width="3" stroke-linecap="round" stroke-linejoin="round"><path d="M22 159v-20q0-27 58-27t58 27v20" fill="#edf2f6"/><path d="M43 125v34m74-34v34" stroke="#fff2d5" stroke-width="9"/><rect x="59" y="111" width="42" height="15" rx="6" fill="#101d2a"/><ellipse cx="80" cy="72" rx="61" ry="61" fill="#edf2f6"/><path d="M75 11h12v14H75z" fill="#edf2f6"/><ellipse cx="80" cy="76" rx="48" ry="43" fill="#101d2a"/><ellipse cx="80" cy="79" rx="42" ry="37" fill="#ebbf9e"/><g fill="#282d39"><path d="M38 94V62q0-30 43-27q42 1 42 30v29l-13 5V62q-20 3-39-11q-10 14-21 14v34Z"/></g><path d="M34 60q1-14 10-20" stroke="#edf2f6" stroke-width="5" fill="none"/><ellipse cx="63" cy="78" rx="3" ry="5" fill="#101d2a"/><ellipse cx="98" cy="78" rx="3" ry="5" fill="#101d2a"/><path d="M69 92q12 17 24 0Z" fill="#fff2d5"/><g transform="translate(105 128) scale(.75)" fill="#101d2a" stroke-width="1.5"><path d="M14 23 5 14C-1 5 8 1 14 8C20 1 29 5 23 14Z"/></g><rect x="58" y="135" width="31" height="19" rx="3" fill="#fff2d5"/><path d="M64 142h12m-12 6h18" stroke-width="2"/></g></svg>
