<svg xmlns="http://www.w3.org/2000/svg" viewBox="0 0 160 160"><g stroke="#101d2a" stroke-width="3" stroke-linecap="round" stroke-linejoin="round"><path d="M22 159v-20q0-27 58-27t58 27v20" fill="#8297a4"/><path d="M43 125v34m74-34v34" stroke="#fff2d5" stroke-width="9"/><rect x="59" y="111" width="42" height="15" rx="6" fill="#101d2a"/><ellipse cx="80" cy="72" rx="61" ry="61" fill="#edf2f6"/><path d="M75 11h12v14H75z" fill="#8297a4"/><ellipse cx="80" cy="76" rx="48" ry="43" fill="#101d2a"/><ellipse cx="80" cy="79" rx="42" ry="37" fill="#edbf9b"/><g fill="#946a43"><path d="M39 69q0-25 25-33l17-15 3 16 19-8-3 14 19 18q-33-11-80 8Z"/></g><path d="M34 60q1-14 10-20" stroke="#edf2f6" stroke-width="5" fill="none"/><ellipse cx="63" cy="78" rx="3" ry="5" fill="#101d2a"/><ellipse cx="98" cy="78" rx="3" ry="5" fill="#101d2a"/><path d="M75 94q6 4 12 0" fill="none"/><g transform="translate(105 128) scale(.75)" fill="#101d2a" stroke-width="1.5"><rect x="4" y="4" width="20" height="20" rx="3"/><path d="M8 2v5m12-5v5M8 22v5m12-5v5M2 8h5m15 0h5M2 20h5m15 0h5" fill="none"/></g><rect x="58" y="135" width="31" height="19" rx="3" fill="#fff2d5"/><path d="M64 142h12m-12 6h18" stroke-width="2"/></g></svg>
